<svg xmlns="http://www.w3.org/2000/svg" viewBox="0 0 512 512" role="img" aria-labelledby="title desc">
  <title id="title">DocForge Application Icon</title>
  <desc id="desc">A gradient shield-shaped document with a radiant forge spark.</desc>
  <defs>
    <linearGradient id="bgGradient" x1="0%" y1="0%" x2="100%" y2="100%">
      <stop offset="0%" stop-color="#4f46e5"/>
      <stop offset="45%" stop-color="#6366f1"/>
      <stop offset="100%" stop-color="#22d3ee"/>
    </linearGradient>
    <linearGradient id="pageGradient" x1="0%" y1="0%" x2="100%" y2="100%">
      <stop offset="0%" stop-color="#ffffff" stop-opacity="0.92"/>
      <stop offset="100%" stop-color="#e2e8f0" stop-opacity="0.85"/>
    </linearGradient>
    <filter id="softShadow" x="-20%" y="-20%" width="140%" height="140%">
      <feDropShadow dx="0" dy="12" stdDeviation="18" flood-color="#0f172a" flood-opacity="0.25"/>
    </filter>
  </defs>
  <g filter="url(#softShadow)">
    <path d="M256 40c-33.7 0-67.4 8.6-97.5 26.1l-78.9 45.6C52 126 40 147.7 40 171.6v168.7c0 23.9 12 45.6 39.6 59.9l78.9 40.8C189.7 456.6 223.4 464 257.1 464c33.7 0 67.4-7.4 98.6-22.9l76.8-38.6c27.6-13.9 39.5-35.5 39.5-59.4V171.6c0-23.9-12-45.6-39.6-59.9l-78.9-45.6C323.4 48.6 289.7 40 256 40z" fill="url(#bgGradient)"/>
    <path d="M170 128h132a36 36 0 0 1 25.5 10.5l50 50A36 36 0 0 1 388 214v120c0 26.5-21.5 48-48 48H170c-26.5 0-48-21.5-48-48V176c0-26.5 21.5-48 48-48z" fill="url(#pageGradient)"/>
    <path d="M334 176v32a16 16 0 0 0 16 16h32" fill="none" stroke="#4f46e5" stroke-width="20" stroke-linecap="round" stroke-linejoin="round"/>
    <path d="M192 224h80" stroke="#312e81" stroke-width="20" stroke-linecap="round"/>
    <path d="M192 276h128" stroke="#312e81" stroke-width="20" stroke-linecap="round"/>
    <path d="M192 328h96" stroke="#312e81" stroke-width="20" stroke-linecap="round"/>
    <g transform="translate(256 336)">
      <circle r="60" fill="#1e293b" opacity="0.15"/>
      <path d="M0-78l18 50 54 0-44 32 17 53-45-32-45 32 17-53-44-32 54 0z" fill="#facc15" stroke="#f59e0b" stroke-width="8" stroke-linejoin="round"/>
      <circle r="22" fill="#fef08a"/>
    </g>
  </g>
</svg>
